<?xml version="1.0" encoding="UTF-8" standalone="no"?>
<!-- Created with Inkscape (http://www.inkscape.org/) -->

<svg
   xmlns:dc="http://purl.org/dc/elements/1.1/"
   xmlns:cc="http://creativecommons.org/ns#"
   xmlns:rdf="http://www.w3.org/1999/02/22-rdf-syntax-ns#"
   xmlns:svg="http://www.w3.org/2000/svg"
   xmlns="http://www.w3.org/2000/svg"
   xmlns:sodipodi="http://sodipodi.sourceforge.net/DTD/sodipodi-0.dtd"
   xmlns:inkscape="http://www.inkscape.org/namespaces/inkscape"
   width="24"
   height="24"
   id="svg2"
   version="1.1"
   inkscape:version="0.48.4 r"
   sodipodi:docname="battery_full.svg"
   inkscape:export-filename="C:\Users\chorton\Documents\GitHub\GxBatteryIndicator\battery_full.png"
   inkscape:export-xdpi="90"
   inkscape:export-ydpi="90">
  <defs
     id="defs4" />
  <sodipodi:namedview
     id="base"
     pagecolor="#ffffff"
     bordercolor="#666666"
     borderopacity="1.0"
     inkscape:pageopacity="0.0"
     inkscape:pageshadow="2"
     inkscape:zoom="21.916667"
     inkscape:cx="6.2737643"
     inkscape:cy="12"
     inkscape:document-units="px"
     inkscape:current-layer="layer1"
     showgrid="true"
     inkscape:window-width="1280"
     inkscape:window-height="738"
     inkscape:window-x="-8"
     inkscape:window-y="-8"
     inkscape:window-maximized="1">
    <inkscape:grid
       type="xygrid"
       id="grid2985"
       empspacing="5"
       visible="true"
       enabled="true"
       snapvisiblegridlinesonly="true" />
  </sodipodi:namedview>
  <metadata
     id="metadata7">
    <rdf:RDF>
      <cc:Work
         rdf:about="">
        <dc:format>image/svg+xml</dc:format>
        <dc:type
           rdf:resource="http://purl.org/dc/dcmitype/StillImage" />
        <dc:title></dc:title>
      </cc:Work>
    </rdf:RDF>
  </metadata>
  <g
     inkscape:label="Layer 1"
     inkscape:groupmode="layer"
     id="layer1"
     transform="translate(0,-1028.3622)">
    <path
       style="fill:#00ffff;stroke:none"
       d="M 9 4 C 7.338 4 6 5.338 6 7 L 6 19 C 6 20.662 7.338 22 9 22 L 15 22 C 16.662 22 18 20.662 18 19 L 18 7 C 18 5.338 16.662 4 15 4 L 9 4 z M 9.625 5.84375 L 14.375 5.84375 C 15.695753 5.84375 16.78125 6.8979972 16.78125 8.21875 L 16.78125 17.78125 C 16.78125 19.102003 15.695753 20.15625 14.375 20.15625 L 9.625 20.15625 C 8.3042472 20.15625 7.21875 19.102003 7.21875 17.78125 L 7.21875 8.21875 C 7.21875 6.8979972 8.3042472 5.84375 9.625 5.84375 z "
       transform="translate(0,1028.3622)"
       id="rect2987" />
    <rect
       style="fill:#00ffff;fill-opacity:1;stroke:none"
       id="rect2989"
       width="6"
       height="2"
       x="9"
       y="1"
       transform="translate(0,1028.3622)"
       rx="0"
       ry="2" />
    <path
       style="fill:#00ffff;fill-opacity:1;stroke:none"
       d="m 11,1035.4247 c -1.662,0 -3,1.338 -3,3 l 8,0 c 0,-1.662 -1.338,-3 -3,-3 l -2,0 z"
       id="path3025" />
    <path
       style="fill:#00ffff;fill-opacity:1;stroke:none"
       d="m 8,1039.4247 0,3.9375 8,0 0,-3.9375 -8,0 z"
       id="path3023" />
    <path
       style="fill:#00ffff;fill-opacity:1;stroke:none"
       d="m 8,1044.3622 0,0.062 c 0,1.662 1.338,3 3,3 l 2,0 c 1.662,0 3,-1.338 3,-3 l 0,-0.062 -8,0 z"
       id="rect3013" />
  </g>
</svg>
