<?xml version="1.0" encoding="UTF-8" standalone="no"?>
<!-- Created with Inkscape (http://www.inkscape.org/) -->

<svg
   xmlns:dc="http://purl.org/dc/elements/1.1/"
   xmlns:cc="http://creativecommons.org/ns#"
   xmlns:rdf="http://www.w3.org/1999/02/22-rdf-syntax-ns#"
   xmlns:svg="http://www.w3.org/2000/svg"
   xmlns="http://www.w3.org/2000/svg"
   xmlns:sodipodi="http://sodipodi.sourceforge.net/DTD/sodipodi-0.dtd"
   xmlns:inkscape="http://www.inkscape.org/namespaces/inkscape"
   width="24"
   height="24"
   id="svg2"
   version="1.1"
   inkscape:version="0.48.4 r"
   sodipodi:docname="battery_charging.svg"
   inkscape:export-filename="C:\Users\chorton\Documents\GitHub\GxBatteryIndicator\battery_charging.png"
   inkscape:export-xdpi="90"
   inkscape:export-ydpi="90">
  <defs
     id="defs4" />
  <sodipodi:namedview
     id="base"
     pagecolor="#ffffff"
     bordercolor="#666666"
     borderopacity="1.0"
     inkscape:pageopacity="0.0"
     inkscape:pageshadow="2"
     inkscape:zoom="21.916667"
     inkscape:cx="6.4347954"
     inkscape:cy="12"
     inkscape:document-units="px"
     inkscape:current-layer="layer1"
     showgrid="true"
     inkscape:window-width="1280"
     inkscape:window-height="738"
     inkscape:window-x="-8"
     inkscape:window-y="-8"
     inkscape:window-maximized="1">
    <inkscape:grid
       type="xygrid"
       id="grid2985"
       empspacing="5"
       visible="true"
       enabled="true"
       snapvisiblegridlinesonly="true" />
  </sodipodi:namedview>
  <metadata
     id="metadata7">
    <rdf:RDF>
      <cc:Work
         rdf:about="">
        <dc:format>image/svg+xml</dc:format>
        <dc:type
           rdf:resource="http://purl.org/dc/dcmitype/StillImage" />
        <dc:title></dc:title>
      </cc:Work>
    </rdf:RDF>
  </metadata>
  <g
     inkscape:label="Layer 1"
     inkscape:groupmode="layer"
     id="layer1"
     transform="translate(0,-1028.3622)"
     style="display:none">
    <path
       style="fill:#00ffff;stroke:none"
       d="M 9,4 C 7.338,4 6,5.338 6,7 l 0,12 c 0,1.662 1.338,3 3,3 l 6,0 c 1.662,0 3,-1.338 3,-3 L 18,7 C 18,5.338 16.662,4 15,4 L 9,4 z m 0.625,1.84375 4.75,0 c 1.320753,0 2.40625,1.0542472 2.40625,2.375 l 0,9.5625 c 0,1.320753 -1.085497,2.375 -2.40625,2.375 l -4.75,0 c -1.3207528,0 -2.40625,-1.054247 -2.40625,-2.375 l 0,-9.5625 c 0,-1.3207528 1.0854972,-2.375 2.40625,-2.375 z"
       transform="translate(0,1028.3622)"
       id="rect2987"
       inkscape:connector-curvature="0" />
    <rect
       style="fill:#00ffff;fill-opacity:1;stroke:none"
       id="rect2989"
       width="6"
       height="2"
       x="9"
       y="1"
       transform="translate(0,1028.3622)"
       rx="0"
       ry="2" />
  </g>
  <g
     inkscape:groupmode="layer"
     id="layer2"
     inkscape:label="Symbol">
    <path
       style="fill:#ffff00;stroke:#ffff00;stroke-width:1px;stroke-linecap:butt;stroke-linejoin:round;stroke-opacity:1;fill-opacity:1;"
       d="m 14,7 -5,4 4,3 -4,4 6,-4 -4,-3 z"
       id="path3913"
       inkscape:connector-curvature="0" />
  </g>
</svg>
